{"glyphs":{"$":{"x_min":0,"x_max":986,"ha":986,"o":"m 250 -125 l 250 0 l 125 0 l 0 125 l 0 250 l 625 250 l 625 375 l 0 375 l 0 1000 l 250 1000 l 250 1125 l 500 1125 l 500 1000 l 750 1000 l 875 875 l 875 750 l 250 750 l 250 625 l 875 625 l 875 0 l 500 0 l 500 -125 z"},"?":{"x_min":0,"x_max":986,"ha":986,"o":"m 250 0 l 250 250 l 500 250 l 500 0 z m 250 375 l 250 500 l 375 625 l 625 625 l 625 750 l 0 750 l 0 1000 l 750 1000 l 875 875 l 875 500 l 750 375 z"},"a":{"x_min":0,"x_max":1236,"ha":1236,"o":"m -62 0 l 438 1000 l 688 1000 l 1188 0 l 875 0 l 812 125 l 375 125 l 500 375 l 688 375 l 562 625 l 250 0 z"},"L":{"x_min":0,"x_max":986,"ha":986,"o":"m 0 0 l 0 1000 l 250 1000 l 250 250 l 875 250 l 750 0 z"},"3":{"x_min":0,"x_max":986,"ha":986,"o":"m 0 0 l 0 250 l 625 250 l 625 375 l 0 375 l 0 625 l 625 625 l 625 750 l 0 750 l 0 1000 l 750 1000 l 875 875 l 875 125 l 750 0 z"},"J":{"x_min":0,"x_max":986,"ha":986,"o":"m 125 0 l 0 125 l 0 500 l 250 500 l 250 250 l 625 250 l 625 750 l 125 750 l 0 1000 l 875 1000 l 875 125 l 750 0 z"},"V":{"x_min":0,"x_max":1361,"ha":1361,"o":"m 500 0 l 0 1000 l 312 1000 l 594 438 l 875 1000 l 1188 1000 l 688 0 z"},"7":{"x_min":0,"x_max":986,"ha":986,"o":"m 625 0 l 625 750 l 0 750 l 0 1000 l 750 1000 l 875 875 l 875 0 z"},"S":{"x_min":0,"x_max":1111,"ha":1111,"o":"m 0 0 l 0 250 l 625 250 l 625 375 l 125 375 l 0 500 l 0 875 l 125 1000 l 1000 1000 l 875 750 l 250 750 l 250 625 l 875 625 l 875 250 l 625 0 z"},"Z":{"x_min":0,"x_max":986,"ha":986,"o":"m 0 0 l 375 750 l 0 750 l 0 1000 l 875 1000 l 500 250 l 875 250 l 875 0 z"},"x":{"x_min":0,"x_max":986,"ha":986,"o":"m 0 0 l 250 500 l 0 1000 l 312 1000 l 438 750 l 562 1000 l 875 1000 l 625 500 l 875 0 l 562 0 l 438 250 l 312 0 z"},"v":{"x_min":0,"x_max":1361,"ha":1361,"o":"m 500 0 l 0 1000 l 312 1000 l 594 438 l 875 1000 l 1188 1000 l 688 0 z"},"O":{"x_min":0,"x_max":986,"ha":986,"o":"m 625 250 l 625 750 l 250 750 l 250 250 z m 125 0 l 0 125 l 0 875 l 125 1000 l 750 1000 l 875 875 l 875 125 l 750 0 z"},"C":{"x_min":0,"x_max":986,"ha":986,"o":"m 125 0 l 0 125 l 0 875 l 125 1000 l 875 1000 l 750 750 l 250 750 l 250 250 l 875 250 l 875 0 z"},"W":{"x_min":0,"x_max":1111,"ha":1111,"o":"m 125 0 l 0 125 l 0 1000 l 250 1000 l 250 250 l 375 250 l 375 1000 l 625 1000 l 625 250 l 750 250 l 750 1000 l 1000 1000 l 1000 125 l 875 0 l 562 0 l 500 125 l 438 0 z"},"A":{"x_min":0,"x_max":1236,"ha":1236,"o":"m -62 0 l 438 1000 l 688 1000 l 1188 0 l 875 0 l 812 125 l 375 125 l 500 375 l 688 375 l 562 625 l 250 0 z"},"f":{"x_min":0,"x_max":986,"ha":986,"o":"m 0 0 l 0 1000 l 875 1000 l 750 750 l 250 750 l 250 625 l 750 625 l 750 375 l 250 375 l 250 0 z"},"Q":{"x_min":0,"x_max":986,"ha":986,"o":"m 625 250 l 625 750 l 250 750 l 250 250 z m 625 -250 l 375 0 l 125 0 l 0 125 l 0 875 l 125 1000 l 750 1000 l 875 875 l 875 125 l 750 0 l 625 0 l 625 -250 z"},"w":{"x_min":0,"x_max":1111,"ha":1111,"o":"m 125 0 l 0 125 l 0 1000 l 250 1000 l 250 250 l 375 250 l 375 1000 l 625 1000 l 625 250 l 750 250 l 750 1000 l 1000 1000 l 1000 125 l 875 0 l 562 0 l 500 125 l 438 0 z"},"E":{"x_min":0,"x_max":1111,"ha":1111,"o":"m 0 0 l 0 1000 l 750 1000 l 750 750 l 250 750 l 250 625 l 750 625 l 750 375 l 250 375 l 250 250 l 750 250 l 1000 0 z"},"s":{"x_min":0,"x_max":986,"ha":986,"o":"m 0 0 l 0 250 l 625 250 l 625 375 l 125 375 l 0 500 l 0 875 l 125 1000 l 875 1000 l 875 750 l 250 750 l 250 625 l 875 625 l 875 250 l 625 0 z"},"l":{"x_min":0,"x_max":986,"ha":986,"o":"m 0 0 l 0 1000 l 250 1000 l 250 250 l 875 250 l 750 0 z"},"8":{"x_min":0,"x_max":986,"ha":986,"o":"m 625 250 l 625 375 l 250 375 l 250 250 z m 625 625 l 625 750 l 250 750 l 250 625 z m 125 0 l 0 125 l 0 375 l 125 500 l 0 625 l 0 875 l 125 1000 l 750 1000 l 875 875 l 875 625 l 750 500 l 875 375 l 875 125 l 750 0 z"},"e":{"x_min":0,"x_max":861,"ha":861,"o":"m 0 0 l 0 1000 l 750 1000 l 750 750 l 250 750 l 250 625 l 750 625 l 750 375 l 250 375 l 250 250 l 750 250 l 750 0 z"},"b":{"x_min":0,"x_max":986,"ha":986,"o":"m 625 250 l 625 375 l 250 375 l 250 250 z m 625 625 l 625 750 l 250 750 l 250 625 z m 0 0 l 0 1000 l 750 1000 l 875 875 l 875 625 l 812 500 l 875 375 l 875 125 l 750 0 z"},"m":{"x_min":0,"x_max":1111,"ha":1111,"o":"m 0 0 l 0 875 l 125 1000 l 438 1000 l 500 875 l 562 1000 l 875 1000 l 1000 875 l 1000 0 l 750 0 l 750 750 l 625 750 l 625 0 l 375 0 l 375 750 l 250 750 l 250 0 z"},"#":{"x_min":0,"x_max":986,"ha":986,"o":"m 500 375 l 500 625 l 375 625 l 375 375 z m 125 0 l 125 125 l 0 125 l 0 375 l 125 375 l 125 625 l 0 625 l 0 875 l 125 875 l 250 1000 l 375 1000 l 375 875 l 500 875 l 625 1000 l 750 1000 l 750 875 l 875 875 l 875 625 l 750 625 l 750 375 l 875 375 l 875 125 l 750 125 l 625 0 l 500 0 l 500 125 l 375 125 l 250 0 z"},",":{"x_min":0,"x_max":361,"ha":361,"o":"m 0 -125 l 0 250 l 250 250 l 250 125 l 0 -125 z"},"n":{"x_min":0,"x_max":986,"ha":986,"o":"m 0 0 l 0 1000 l 312 1000 l 625 375 l 625 1000 l 875 1000 l 875 0 l 562 0 l 250 625 l 250 0 z"},"h":{"x_min":0,"x_max":986,"ha":986,"o":"m 0 0 l 0 1000 l 250 1000 l 250 625 l 625 625 l 625 1000 l 875 1000 l 875 0 l 625 0 l 625 375 l 250 375 l 250 0 z"},"z":{"x_min":0,"x_max":986,"ha":986,"o":"m 0 0 l 375 750 l 0 750 l 0 1000 l 875 1000 l 500 250 l 875 250 l 875 0 z"},"B":{"x_min":0,"x_max":986,"ha":986,"o":"m 625 250 l 625 375 l 250 375 l 250 250 z m 625 625 l 625 750 l 250 750 l 250 625 z m 0 0 l 0 1000 l 750 1000 l 875 875 l 875 625 l 812 500 l 875 375 l 875 125 l 750 0 z"},"K":{"x_min":0,"x_max":986,"ha":986,"o":"m 0 0 l 0 1000 l 250 1000 l 250 625 l 375 625 l 562 1000 l 812 1000 l 562 500 l 812 0 l 562 0 l 375 375 l 250 375 l 250 0 z"},"R":{"x_min":0,"x_max":986,"ha":986,"o":"m 0 0 l 0 1000 l 750 1000 l 875 875 l 875 500 l 750 375 l 688 375 l 875 0 l 625 0 l 375 500 l 375 625 l 625 625 l 625 750 l 250 750 l 250 0 z"},"T":{"x_min":0,"x_max":1111,"ha":1111,"o":"m 312 0 l 312 750 l 0 750 l 0 1000 l 1000 1000 l 750 750 l 562 750 l 562 0 z"},"P":{"x_min":0,"x_max":986,"ha":986,"o":"m 625 625 l 625 750 l 250 750 l 250 625 z m 0 0 l 0 1000 l 750 1000 l 875 875 l 875 500 l 750 375 l 250 375 l 250 0 z"},"t":{"x_min":0,"x_max":986,"ha":986,"o":"m 312 0 l 312 750 l 0 750 l 0 1000 l 875 1000 l 875 750 l 562 750 l 562 0 z"},"M":{"x_min":0,"x_max":1111,"ha":1111,"o":"m 0 0 l 0 875 l 125 1000 l 438 1000 l 500 875 l 562 1000 l 875 1000 l 1000 875 l 1000 0 l 750 0 l 750 750 l 625 750 l 625 0 l 375 0 l 375 750 l 250 750 l 250 0 z"},"g":{"x_min":0,"x_max":986,"ha":986,"o":"m 125 0 l 0 125 l 0 875 l 125 1000 l 875 1000 l 750 750 l 250 750 l 250 250 l 625 250 l 625 500 l 500 625 l 875 625 l 875 0 z"},"j":{"x_min":0,"x_max":986,"ha":986,"o":"m 125 0 l 0 125 l 0 500 l 250 500 l 250 250 l 625 250 l 625 750 l 125 750 l 0 1000 l 875 1000 l 875 125 l 750 0 z"},"i":{"x_min":0,"x_max":361,"ha":361,"o":"m 0 0 l 0 1000 l 250 1000 l 250 0 z"},"y":{"x_min":0,"x_max":986,"ha":986,"o":"m 0 0 l 250 500 l 0 1000 l 312 1000 l 438 750 l 562 1000 l 875 1000 l 375 0 z"},".":{"x_min":0,"x_max":361,"ha":361,"o":"m 0 0 l 0 250 l 250 250 l 250 0 z"},"p":{"x_min":0,"x_max":986,"ha":986,"o":"m 625 625 l 625 750 l 250 750 l 250 625 z m 0 0 l 0 1000 l 750 1000 l 875 875 l 875 500 l 750 375 l 250 375 l 250 0 z"},"X":{"x_min":0,"x_max":986,"ha":986,"o":"m 0 0 l 250 500 l 0 1000 l 312 1000 l 438 750 l 562 1000 l 875 1000 l 625 500 l 875 0 l 562 0 l 438 250 l 312 0 z"},"Y":{"x_min":0,"x_max":986,"ha":986,"o":"m 0 0 l 250 500 l 0 1000 l 312 1000 l 438 750 l 562 1000 l 875 1000 l 375 0 z"},"c":{"x_min":0,"x_max":986,"ha":986,"o":"m 125 0 l 0 125 l 0 875 l 125 1000 l 875 1000 l 750 750 l 250 750 l 250 250 l 875 250 l 875 0 z"},"!":{"x_min":0,"x_max":486,"ha":486,"o":"m 0 0 l 0 250 l 250 250 l 250 0 z m 0 375 l 0 1000 l 375 1000 l 250 875 l 250 375 z"},"6":{"x_min":0,"x_max":986,"ha":986,"o":"m 625 250 l 625 375 l 250 375 l 250 250 z m 125 0 l 0 125 l 0 750 l 250 1000 l 875 1000 l 875 750 l 250 750 l 250 625 l 875 625 l 875 125 l 750 0 z"},"r":{"x_min":0,"x_max":986,"ha":986,"o":"m 0 0 l 0 1000 l 750 1000 l 875 875 l 875 500 l 750 375 l 688 375 l 875 0 l 625 0 l 375 500 l 375 625 l 625 625 l 625 750 l 250 750 l 250 0 z"},"2":{"x_min":0,"x_max":986,"ha":986,"o":"m 0 0 l 0 500 l 125 625 l 625 625 l 625 750 l 0 750 l 0 1000 l 750 1000 l 875 875 l 875 500 l 750 375 l 250 375 l 250 250 l 875 250 l 875 0 z"},"9":{"x_min":0,"x_max":986,"ha":986,"o":"m 625 625 l 625 750 l 250 750 l 250 625 z m 625 0 l 625 375 l 125 375 l 0 500 l 0 875 l 125 1000 l 875 1000 l 875 0 z"}," ":{"x_min":0,"x_max":1072,"ha":1072,"o":""},"I":{"x_min":0,"x_max":361,"ha":361,"o":"m 0 0 l 0 1000 l 250 1000 l 250 0 z"},"H":{"x_min":0,"x_max":986,"ha":986,"o":"m 0 0 l 0 1000 l 250 1000 l 250 625 l 625 625 l 625 1000 l 875 1000 l 875 0 l 625 0 l 625 375 l 250 375 l 250 0 z"},"4":{"x_min":0,"x_max":986,"ha":986,"o":"m 750 0 l 625 125 l 625 375 l 125 375 l 0 500 l 0 1000 l 250 1000 l 250 625 l 625 625 l 625 1000 l 875 1000 l 875 0 z"},"D":{"x_min":0,"x_max":986,"ha":986,"o":"m 625 250 l 625 750 l 250 750 l 250 250 z m 0 0 l 0 1000 l 750 1000 l 875 875 l 875 125 l 750 0 z"},"0":{"x_min":0,"x_max":986,"ha":986,"o":"m 625 250 l 625 750 l 250 750 l 250 250 z m 0 0 l 0 750 l 250 1000 l 875 1000 l 875 250 l 625 0 z"},"F":{"x_min":0,"x_max":986,"ha":986,"o":"m 0 0 l 0 1000 l 875 1000 l 750 750 l 250 750 l 250 625 l 750 625 l 750 375 l 250 375 l 250 0 z"},"k":{"x_min":0,"x_max":986,"ha":986,"o":"m 0 0 l 0 1000 l 250 1000 l 250 625 l 375 625 l 562 1000 l 812 1000 l 562 500 l 812 0 l 562 0 l 375 375 l 250 375 l 250 0 z"},"u":{"x_min":0,"x_max":986,"ha":986,"o":"m 125 0 l 0 125 l 0 1000 l 250 1000 l 250 250 l 625 250 l 625 1000 l 875 1000 l 875 250 l 750 0 z"},"U":{"x_min":0,"x_max":986,"ha":986,"o":"m 125 0 l 0 125 l 0 1000 l 250 1000 l 250 250 l 625 250 l 625 1000 l 875 1000 l 875 250 l 750 0 z"},"o":{"x_min":0,"x_max":986,"ha":986,"o":"m 625 250 l 625 750 l 250 750 l 250 250 z m 125 0 l 0 125 l 0 875 l 125 1000 l 750 1000 l 875 875 l 875 125 l 750 0 z"},"N":{"x_min":0,"x_max":986,"ha":986,"o":"m 0 0 l 0 1000 l 312 1000 l 625 375 l 625 1000 l 875 1000 l 875 0 l 562 0 l 250 625 l 250 0 z"},"+":{"x_min":0,"x_max":861,"ha":861,"o":"m 250 125 l 250 375 l 0 375 l 0 500 l 125 625 l 250 625 l 250 750 l 375 875 l 500 875 l 500 625 l 750 625 l 750 375 l 500 375 l 500 125 z"},"G":{"x_min":0,"x_max":986,"ha":986,"o":"m 125 0 l 0 125 l 0 875 l 125 1000 l 875 1000 l 750 750 l 250 750 l 250 250 l 625 250 l 625 500 l 500 625 l 875 625 l 875 0 z"},"q":{"x_min":0,"x_max":986,"ha":986,"o":"m 625 250 l 625 750 l 250 750 l 250 250 z m 625 -250 l 375 0 l 125 0 l 0 125 l 0 875 l 125 1000 l 750 1000 l 875 875 l 875 125 l 750 0 l 625 0 l 625 -250 z"},"d":{"x_min":0,"x_max":986,"ha":986,"o":"m 625 250 l 625 750 l 250 750 l 250 250 z m 0 0 l 0 1000 l 750 1000 l 875 875 l 875 125 l 750 0 z"},"1":{"x_min":0,"x_max":611,"ha":611,"o":"m 0 0 l 0 125 l 125 250 l 125 750 l 0 750 l 0 1000 l 250 1000 l 375 875 l 375 250 l 500 125 l 500 0 z"},"5":{"x_min":0,"x_max":986,"ha":986,"o":"m 125 0 l 0 125 l 0 250 l 625 250 l 625 375 l 0 375 l 0 1000 l 750 1000 l 875 875 l 875 750 l 250 750 l 250 625 l 875 625 l 875 0 z"}}}
